<?xml version="1.0" encoding="UTF-8"?><svg xmlns="http://www.w3.org/2000/svg" xmlns:xlink="http://www.w3.org/1999/xlink" contentScriptType="text/ecmascript" width="427.5" zoomAndPan="magnify" contentStyleType="text/css" viewBox="0 0 427.5 374.999991" height="374.999991" preserveAspectRatio="xMidYMid meet" version="1.0"><defs><clipPath id="clip-0"><path d="M 0 0.21875 L 164 0.21875 L 164 164 L 0 164 Z M 0 0.21875 " clip-rule="nonzero"/></clipPath><clipPath id="clip-1"><path d="M 0 211 L 164 211 L 164 374.78125 L 0 374.78125 Z M 0 211 " clip-rule="nonzero"/></clipPath><clipPath id="clip-2"><path d="M 218 0.21875 L 426.453125 0.21875 L 426.453125 374.78125 L 218 374.78125 Z M 218 0.21875 " clip-rule="nonzero"/></clipPath></defs><g clip-path="url(#clip-0)"><path fill="rgb(100%, 100%, 100%)" d="M 81.589844 163.59375 L 0 163.59375 L 0 0.304688 L 81.589844 0.304688 C 126.660156 0.304688 163.179688 36.851562 163.179688 81.949219 C 163.179688 127.046875 126.660156 163.59375 81.589844 163.59375 Z M 81.589844 163.59375 " fill-opacity="1" fill-rule="nonzero"/></g><g clip-path="url(#clip-1)"><path fill="rgb(100%, 100%, 100%)" d="M 81.589844 375.132812 L 0 375.132812 L 0 211.84375 L 81.589844 211.84375 C 126.660156 211.84375 163.179688 248.390625 163.179688 293.488281 C 163.179688 338.585938 126.660156 375.132812 81.589844 375.132812 Z M 81.589844 375.132812 " fill-opacity="1" fill-rule="nonzero"/></g><g clip-path="url(#clip-2)"><path fill="rgb(42.749023%, 61.959839%, 92.158508%)" d="M 239.164062 375.132812 L 218.742188 375.132812 L 218.742188 0.304688 L 239.164062 0.304688 C 342.613281 0.304688 426.453125 84.199219 426.453125 187.71875 C 426.453125 291.238281 342.613281 375.132812 239.164062 375.132812 Z M 239.164062 375.132812 " fill-opacity="1" fill-rule="nonzero"/></g></svg>