<?xml version="1.0" encoding="UTF-8"?><svg xmlns="http://www.w3.org/2000/svg" xmlns:xlink="http://www.w3.org/1999/xlink" contentScriptType="text/ecmascript" width="375" zoomAndPan="magnify" contentStyleType="text/css" viewBox="0 0 375 374.999991" height="374.999991" preserveAspectRatio="xMidYMid meet" version="1.0"><path fill="rgb(6.269836%, 5.879211%, 5.099487%)" d="M 191.953125 0 L 191.953125 36.003906 C 191.953125 36.050781 191.9375 36.09375 191.9375 36.121094 C 230.417969 37.234375 265.28125 52.675781 291.402344 77.3125 C 291.429688 77.285156 291.445312 77.253906 291.460938 77.226562 L 316.933594 51.765625 C 284.265625 20.597656 240.394531 1.128906 191.953125 0 " fill-opacity="1" fill-rule="nonzero"/><path fill="rgb(6.269836%, 5.879211%, 5.099487%)" d="M 77.316406 291.402344 C 52.675781 265.28125 37.238281 230.417969 36.125 191.9375 C 36.09375 191.9375 36.050781 191.953125 36.019531 191.953125 L 0 191.953125 C 1.128906 240.394531 20.597656 284.265625 51.769531 316.933594 L 77.226562 291.472656 C 77.257812 291.445312 77.285156 291.429688 77.316406 291.402344 " fill-opacity="1" fill-rule="nonzero"/><path fill="rgb(6.269836%, 5.879211%, 5.099487%)" d="M 338.992188 191.953125 C 338.949219 191.953125 338.90625 191.9375 338.875 191.9375 C 337.761719 230.417969 322.324219 265.28125 297.683594 291.402344 C 297.714844 291.429688 297.742188 291.445312 297.773438 291.472656 L 323.230469 316.933594 C 354.402344 284.265625 373.871094 240.394531 375 191.953125 L 338.992188 191.953125 " fill-opacity="1" fill-rule="nonzero"/><path fill="rgb(6.269836%, 5.879211%, 5.099487%)" d="M 36.019531 183.046875 C 36.050781 183.046875 36.09375 183.0625 36.125 183.0625 C 37.238281 144.578125 52.675781 109.714844 77.316406 83.597656 C 77.285156 83.570312 77.257812 83.554688 77.226562 83.539062 L 51.769531 58.066406 C 20.597656 90.730469 1.128906 134.605469 0 183.046875 L 36.019531 183.046875 " fill-opacity="1" fill-rule="nonzero"/><path fill="rgb(6.269836%, 5.879211%, 5.099487%)" d="M 58.066406 51.765625 L 83.527344 77.226562 C 83.554688 77.253906 83.570312 77.285156 83.597656 77.3125 C 109.714844 52.675781 144.578125 37.234375 183.0625 36.121094 C 183.0625 36.09375 183.046875 36.050781 183.046875 36.003906 L 183.046875 0 C 134.605469 1.128906 90.734375 20.597656 58.066406 51.765625 " fill-opacity="1" fill-rule="nonzero"/><path fill="rgb(6.269836%, 5.879211%, 5.099487%)" d="M 316.933594 323.230469 L 291.460938 297.773438 C 291.445312 297.742188 291.429688 297.714844 291.402344 297.683594 C 265.28125 322.324219 230.417969 337.761719 191.9375 338.875 C 191.9375 338.90625 191.953125 338.949219 191.953125 338.980469 L 191.953125 375 C 240.394531 373.871094 284.265625 354.402344 316.933594 323.230469 " fill-opacity="1" fill-rule="nonzero"/><path fill="rgb(6.269836%, 5.879211%, 5.099487%)" d="M 297.773438 83.539062 C 297.742188 83.554688 297.714844 83.570312 297.683594 83.597656 C 322.324219 109.714844 337.761719 144.578125 338.875 183.0625 C 338.90625 183.0625 338.949219 183.046875 338.992188 183.046875 L 375 183.046875 C 373.871094 134.605469 354.402344 90.730469 323.230469 58.066406 L 297.773438 83.539062 " fill-opacity="1" fill-rule="nonzero"/><path fill="rgb(6.269836%, 5.879211%, 5.099487%)" d="M 183.046875 338.980469 C 183.046875 338.949219 183.0625 338.90625 183.0625 338.875 C 144.578125 337.761719 109.714844 322.324219 83.597656 297.683594 C 83.570312 297.714844 83.554688 297.742188 83.527344 297.773438 L 58.066406 323.230469 C 90.734375 354.402344 134.605469 373.871094 183.046875 375 L 183.046875 338.980469 " fill-opacity="1" fill-rule="nonzero"/><path fill="rgb(6.269836%, 5.879211%, 5.099487%)" d="M 127.292969 238.257812 C 124.832031 238.257812 122.839844 236.265625 122.839844 233.804688 L 122.839844 154.511719 L 97.015625 188.773438 C 95.539062 190.738281 92.753906 191.117188 90.792969 189.636719 C 88.8125 188.160156 88.433594 185.375 89.914062 183.398438 L 123.734375 138.515625 C 124.890625 136.992188 126.882812 136.363281 128.699219 136.976562 C 130.515625 137.578125 131.746094 139.277344 131.746094 141.195312 L 131.746094 233.804688 C 131.746094 236.265625 129.753906 238.257812 127.292969 238.257812 " fill-opacity="1" fill-rule="nonzero"/><path fill="rgb(6.269836%, 5.879211%, 5.099487%)" d="M 175.707031 145.648438 C 164.105469 145.648438 154.65625 155.097656 154.65625 166.714844 L 154.65625 208.285156 C 154.65625 219.902344 164.105469 229.351562 175.707031 229.351562 C 187.324219 229.351562 196.773438 219.902344 196.773438 208.285156 L 196.773438 166.714844 C 196.773438 155.097656 187.324219 145.648438 175.707031 145.648438 Z M 175.707031 238.257812 C 159.199219 238.257812 145.75 224.808594 145.75 208.285156 L 145.75 166.714844 C 145.75 150.191406 159.199219 136.742188 175.707031 136.742188 C 192.230469 136.742188 205.679688 150.191406 205.679688 166.714844 L 205.679688 208.285156 C 205.679688 224.808594 192.230469 238.257812 175.707031 238.257812 " fill-opacity="1" fill-rule="nonzero"/><path fill="rgb(6.269836%, 5.879211%, 5.099487%)" d="M 246.488281 145.648438 C 234.871094 145.648438 225.425781 155.097656 225.425781 166.714844 L 225.425781 208.285156 C 225.425781 219.902344 234.871094 229.351562 246.488281 229.351562 C 258.089844 229.351562 267.539062 219.902344 267.539062 208.285156 L 267.539062 166.714844 C 267.539062 155.097656 258.089844 145.648438 246.488281 145.648438 Z M 246.488281 238.257812 C 229.964844 238.257812 216.519531 224.808594 216.519531 208.285156 L 216.519531 166.714844 C 216.519531 150.191406 229.964844 136.742188 246.488281 136.742188 C 263.011719 136.742188 276.445312 150.191406 276.445312 166.714844 L 276.445312 208.285156 C 276.445312 224.808594 263.011719 238.257812 246.488281 238.257812 " fill-opacity="1" fill-rule="nonzero"/></svg>